# Blender v2.79 (sub 0) OBJ File: ''
# www.blender.org
mtllib house1.mtl
o Cube_Cube.001
v -2.890798 -0.142475 2.890798
v -2.890798 5.639120 2.890798
v -2.890798 -0.142475 -2.890798
v -2.890798 5.639120 -2.890798
v 2.890798 -0.142475 2.890798
v 2.890798 5.639120 2.890798
v 2.890798 -0.142475 -2.890798
v 2.890798 5.639120 -2.890798
v -3.089966 5.691627 3.264432
v 3.261559 5.691627 3.264432
v -3.089966 5.691627 -3.087093
v 3.261559 5.691627 -3.087093
v 0.085796 7.103557 0.088669
vt 1.031992 0.396946
vt 0.817907 0.374161
vt 0.568411 0.171630
vt 0.182093 1.374161
vt 0.817908 0.374161
vt 0.182093 0.374161
vt 0.182093 1.374161
vt -0.453722 0.374161
vt 0.182093 0.374161
vt 0.182093 1.374161
vt -0.453722 0.374161
vt 0.182093 0.374161
vt 0.817907 0.000000
vt 0.182093 -1.000000
vt 0.182093 0.000000
vt -0.453722 0.000000
vt 0.182093 -1.000000
vt 0.182093 0.000000
vt 0.817907 1.374161
vt 0.817907 1.374161
vt -0.453722 1.374161
vt -0.453722 1.374161
vt 0.817907 -1.000000
vt -0.453722 -1.000000
vt 0.000000 0.000000
vt 0.000000 0.000000
vt 0.000000 0.000000
vt 0.000000 0.000000
vt 0.000000 0.000000
vn -0.5773 0.5773 0.5773
vn -0.5773 -0.5773 -0.5773
vn -0.5773 -0.5773 0.5773
vn -0.5773 0.5773 -0.5773
vn 0.5773 -0.5773 -0.5773
vn 0.5773 0.5773 -0.5773
vn 0.5773 -0.5773 0.5773
vn 0.5773 0.5773 0.5773
vn -0.7027 -0.1107 -0.7027
vn 0.7027 -0.1107 0.7027
vn -0.7027 -0.1107 0.7027
vn 0.7027 -0.1107 -0.7027
vn 0.0000 1.0000 0.0000
usemtl None
s 1
f 2/1/1 3/2/2 1/3/3
f 4/4/4 7/5/5 3/6/2
f 8/7/6 5/8/7 7/9/5
f 6/10/8 1/11/3 5/12/7
f 7/13/5 1/14/3 3/15/2
f 4/16/4 6/17/8 8/18/6
f 2/1/1 4/19/4 3/2/2
f 4/4/4 8/20/6 7/5/5
f 8/7/6 6/21/8 5/8/7
f 6/10/8 2/22/1 1/11/3
f 7/13/5 5/23/7 1/14/3
f 4/16/4 2/24/1 6/17/8
usemtl None_NONE
f 11/25/9 10/26/10 9/27/11
f 10/26/10 12/28/12 13/29/13
f 11/25/9 9/27/11 13/29/13
f 12/28/12 11/25/9 13/29/13
f 9/27/11 10/26/10 13/29/13
f 11/25/9 12/28/12 10/26/10
