# Blender v2.79 (sub 0) OBJ File: 'nicetree.blend'
# www.blender.org
mtllib tree3.mtl
o Cylinder
v 0.000000 -0.351820 -0.673496
v 0.000000 3.259445 -0.484673
v 0.583264 -0.351820 -0.336748
v 0.419739 3.259445 -0.242337
v 0.583264 -0.351820 0.336748
v 0.419739 3.259445 0.242337
v -0.000000 -0.351820 0.673496
v -0.000000 3.259445 0.484673
v -0.583264 -0.351820 0.336748
v -0.419739 3.259445 0.242337
v -0.583264 -0.351820 -0.336748
v -0.419739 3.259445 -0.242337
v 0.138259 3.737322 -0.692440
v 0.557998 3.737322 -0.450103
v 0.557998 3.737322 0.034570
v 0.138258 3.737322 0.276906
v -0.281481 3.737322 0.034570
v -0.281481 3.737322 -0.450103
v 0.640454 4.317057 -0.894998
v 1.060194 4.317057 -0.652661
v 1.060194 4.317057 -0.167988
v 0.640454 4.317057 0.074348
v 0.220715 4.317057 -0.167988
v 0.220715 4.317057 -0.652661
v 0.057836 2.031559 -0.500618
v -0.196803 1.740822 -0.477289
v -0.535616 2.502470 -0.306214
v -0.813943 3.489364 -0.165679
v -0.280977 2.793206 -0.329543
v -0.559304 3.780100 -0.189009
v -0.106045 2.854095 -0.093596
v -0.384372 3.840990 0.046938
v -0.185752 2.624249 0.165679
v -0.464079 3.611143 0.306214
v -0.440391 2.333512 0.189009
v -0.718718 3.320406 0.329543
v -0.615323 2.272623 -0.046938
v -0.893650 3.259517 0.093596
v 0.232768 2.092448 -0.264671
v 0.153061 1.862601 -0.005396
v -0.101578 1.571865 0.017933
v -0.276510 1.510975 -0.218013
v -0.554837 2.497869 -0.077479
v -0.925529 4.567395 -0.119906
v -0.670890 4.858131 -0.143235
v -0.495958 4.919021 0.092711
v -0.575666 4.689174 0.351987
v -0.830305 4.398438 0.375316
v -1.005236 4.337548 0.139370
v 0.559385 3.307942 0.749898
v 0.574764 3.578706 0.609182
v 0.257234 2.765388 0.145711
v 0.410425 3.313905 0.383522
v 0.241855 2.494625 0.286428
v 0.395046 3.043141 0.524239
v 0.084690 2.512899 0.392143
v 0.237881 3.061416 0.629955
v -0.057096 2.801938 0.357142
v 0.096095 3.350454 0.594953
v -0.041718 3.072701 0.216425
v 0.111474 3.621218 0.454237
v 0.115447 3.054426 0.110710
v 0.268639 3.602943 0.348521
v 0.402220 3.326217 0.855614
v 0.260434 3.615255 0.820613
v 0.275813 3.886018 0.679896
v 0.432978 3.867743 0.574181
v 0.933320 4.046313 0.891838
v 0.942604 4.209760 0.806894
v 0.838448 4.057344 0.955653
v 0.752858 4.231822 0.934525
v 0.762142 4.395269 0.849581
v 0.857014 4.384238 0.785766
v -1.207514 5.422519 0.180440
v -1.076918 5.571628 0.168475
v -0.987202 5.602856 0.289484
v -1.028081 5.484975 0.422458
v -1.158677 5.335866 0.434423
v -1.248393 5.304638 0.313414
v 0.728385 4.821547 -0.916164
v 1.006562 4.821547 -0.755559
v 1.006562 4.821547 -0.434348
v 0.728385 4.821547 -0.273743
v 0.450208 4.821547 -0.434348
v 0.450208 4.821547 -0.755559
v -1.323045 4.047011 0.131035
v -0.796212 4.558487 0.673891
v -1.592224 4.890200 0.693719
v -1.862850 4.962481 -0.083150
v -1.234077 4.675434 -0.583100
v -0.574867 4.425756 -0.115220
v -1.010417 5.790072 0.795215
v -1.669627 6.039751 0.327335
v -1.448282 5.907019 -0.461776
v -0.652270 5.575308 -0.481604
v -0.381644 5.503026 0.295265
v -0.921449 6.418496 0.081080
v 1.268800 3.576174 1.132300
v 1.776175 4.183262 1.500925
v 1.075004 4.183262 1.728753
v 0.641645 4.183262 1.132300
v 1.075004 4.183262 0.535846
v 1.776175 4.183262 0.763674
v 1.462596 5.165557 1.728753
v 0.761424 5.165557 1.500925
v 0.761424 5.165557 0.763674
v 1.462596 5.165557 0.535846
v 1.895954 5.165557 1.132300
v 1.268800 5.772645 1.132300
v 0.939081 4.055887 -0.676594
v 1.622939 4.874139 -0.179748
v 0.677876 4.874139 0.127326
v 0.093782 4.874139 -0.676594
v 0.677876 4.874139 -1.480513
v 1.622939 4.874139 -1.173438
v 1.200287 6.198108 0.127326
v 0.255224 6.198108 -0.179748
v 0.255224 6.198108 -1.173438
v 1.200287 6.198108 -1.480513
v 1.784381 6.198108 -0.676594
v 0.939081 7.016360 -0.676594
vt 0.791256 0.631607
vt 0.636586 0.700710
vt 0.621677 0.627293
vt 0.442801 0.719739
vt 0.542473 0.891013
vt 0.426559 0.891013
vt 0.804946 0.309782
vt 0.636549 0.373933
vt 0.637801 0.279974
vt 0.804045 0.377399
vt 0.637801 0.481794
vt 0.019632 0.684251
vt 0.000000 0.728918
vt 0.002658 0.644516
vt 0.726982 0.211358
vt 0.810893 0.032887
vt 0.841566 0.198750
vt 0.801985 0.548564
vt 0.636586 0.511897
vt 0.526283 0.176027
vt 0.726982 0.058572
vt 0.726982 0.175872
vt 0.263177 0.362044
vt 0.348641 0.414295
vt 0.276402 0.456505
vt 0.426559 0.322139
vt 0.335416 0.319833
vt 0.354320 0.279974
vt 0.093113 0.644404
vt 0.146960 0.649223
vt 0.163935 0.688958
vt 0.759107 0.009074
vt 0.841566 0.000000
vt 0.076138 0.604669
vt 0.426559 0.406515
vt 0.407655 0.361998
vt 0.839627 0.303927
vt 0.804946 0.335516
vt 0.821446 0.282584
vt 0.251916 0.497560
vt 0.231456 0.520526
vt 0.231457 0.433187
vt 0.019632 0.551359
vt 0.093113 0.511511
vt 0.839627 0.401926
vt 0.814731 0.383795
vt 0.163935 0.556065
vt 0.435554 0.891013
vt 0.472389 0.930684
vt 0.426559 0.930684
vt 0.950087 0.564252
vt 1.000000 0.637438
vt 0.950135 0.628841
vt 0.888284 0.639734
vt 0.931810 0.730749
vt 0.891403 0.710605
vt 0.928691 0.659878
vt 0.909680 0.591067
vt 0.950087 0.611212
vt 0.950087 0.803461
vt 0.909680 0.783316
vt 0.950135 0.511897
vt 0.999951 0.572848
vt 0.486304 0.964662
vt 0.462800 0.964662
vt 0.664414 0.851823
vt 0.706534 0.773475
vt 0.713390 0.838856
vt 0.061490 0.819366
vt 0.000000 0.875120
vt 0.016106 0.818077
vt 0.084098 0.769942
vt 0.621677 0.756544
vt 0.657558 0.786442
vt 0.852388 0.715555
vt 0.869167 0.622784
vt 0.885719 0.684729
vt 0.854434 0.552380
vt 0.888284 0.593386
vt 0.634772 0.713678
vt 0.719629 0.730609
vt 0.670653 0.905292
vt 0.045385 0.876409
vt 0.085795 0.926469
vt 0.045385 0.930064
vt 0.262311 0.354962
vt 0.248070 0.349394
vt 0.262311 0.279933
vt 0.628533 0.821925
vt 0.854953 0.780675
vt 0.000000 0.928774
vt 0.835836 0.653610
vt 0.835316 0.581778
vt 0.905329 0.405769
vt 0.913182 0.485712
vt 0.886096 0.420371
vt 0.849866 0.343694
vt 0.854215 0.413513
vt 0.841566 0.392052
vt 0.507710 0.891013
vt 0.486304 0.953781
vt 0.486304 0.907636
vt 0.800766 0.804758
vt 0.789067 0.877977
vt 0.781386 0.816013
vt 0.913629 0.357411
vt 0.894397 0.372013
vt 0.873678 0.316204
vt 0.905560 0.323063
vt 0.801890 0.804758
vt 0.789513 0.700710
vt 0.801890 0.712651
vt 0.606012 0.869727
vt 0.604859 0.799722
vt 0.616393 0.847088
vt 0.777605 0.211358
vt 0.803599 0.262791
vt 0.777605 0.251403
vt 0.619905 0.727747
vt 0.582246 0.739063
vt 0.588512 0.725397
vt 0.862515 0.365155
vt 0.243583 0.347703
vt 0.224226 0.279933
vt 0.248070 0.293552
vt 0.574819 0.879100
vt 0.594477 0.822360
vt 0.594809 0.747071
vt 0.613638 0.741413
vt 0.588712 0.926602
vt 0.619905 0.917229
vt 0.893937 0.481572
vt 0.219739 0.334084
vt 0.248070 0.394248
vt 0.224226 0.380629
vt 0.525966 0.893496
vt 0.507710 0.937157
vt 0.861029 0.294744
vt 0.924792 0.308460
vt 0.563285 0.831734
vt 0.312776 0.905601
vt 0.261126 0.900617
vt 0.302832 0.884794
vt 0.801985 0.612604
vt 0.825612 0.511897
vt 0.262422 0.792731
vt 0.277007 0.882302
vt 0.726982 0.263247
vt 0.776736 0.211358
vt 0.777605 0.263247
vt 0.231456 0.828443
vt 0.899124 0.511897
vt 0.919847 0.522229
vt 0.280988 0.556954
vt 0.328864 0.473061
vt 0.376739 0.556924
vt 0.376739 0.501005
vt 0.950087 0.655346
vt 0.974653 0.693404
vt 0.950087 0.739793
vt 0.280988 0.501035
vt 0.420880 0.540835
vt 0.420880 0.456460
vt 0.820488 0.246850
vt 0.838181 0.250008
vt 0.074950 0.391269
vt 0.130254 0.511511
vt 0.000000 0.469853
vt 0.210755 0.394135
vt 0.000000 0.326728
vt 0.130256 0.279933
vt 0.219739 0.474490
vt 0.977073 0.306988
vt 0.977073 0.445121
vt 0.924792 0.404545
vt 0.085795 0.907078
vt 0.106750 0.768653
vt 0.148040 0.837969
vt 0.914572 0.134999
vt 0.933320 0.000000
vt 0.970022 0.091040
vt 0.219739 0.331366
vt 0.925256 0.503648
vt 0.925256 0.280142
vt 0.148040 0.970830
vt 0.970022 0.220616
vt 0.888284 0.871785
vt 0.937306 0.803461
vt 0.937306 0.939134
vt 0.506766 0.279974
vt 0.636549 0.326318
vt 0.562721 0.392444
vt 0.426559 0.394669
vt 0.506769 0.511897
vt 0.636549 0.469656
vt 0.535494 0.616016
vt 0.426559 0.615841
vt 0.501086 0.511897
vt 0.501088 0.719739
vt 0.621677 0.551555
vt 0.621677 0.680010
vt 0.163935 0.958842
vt 0.163935 0.830388
vt 0.204981 0.894500
vt 0.361774 0.909329
vt 0.363404 0.792731
vt 0.407594 0.842469
vt 0.363404 0.996628
vt 0.407594 0.968483
vt 0.312776 0.901839
vt 0.330649 0.792731
vt 0.361774 0.837098
vt 0.330649 1.000000
vt 0.361774 0.965197
vt 0.218101 0.998721
vt 0.937305 0.867704
vt 0.987024 0.803461
vt 0.987024 0.931190
vt 0.218101 0.790875
vt 0.305978 0.584898
vt 0.426559 0.624647
vt 0.340438 0.688497
vt 0.231456 0.688780
vt 0.305979 0.792731
vt 0.426559 0.753096
vt 0.145666 0.141442
vt 0.100525 0.000000
vt 0.263177 0.053432
vt 0.000000 0.139984
vt 0.263177 0.226442
vt 0.100523 0.279933
vt 0.841566 0.226392
vt 0.841566 0.053257
vt 0.896889 0.139670
vt 0.719629 0.857865
vt 0.721826 0.700710
vt 0.781386 0.767748
vt 0.721826 0.975530
vt 0.781386 0.937594
vt 0.163935 0.658570
vt 0.188024 0.511511
vt 0.229976 0.571310
vt 0.188025 0.790875
vt 0.229976 0.743966
vt 0.914572 0.280142
vt 0.801985 0.867265
vt 0.868997 0.780675
vt 0.868997 0.952832
vt 0.914572 0.000000
vt 0.526283 0.053336
vt 0.526283 0.226371
vt 0.409513 0.141279
vt 0.363675 0.000000
vt 0.263177 0.140069
vt 0.363673 0.279974
vt 0.801985 0.684441
vt 0.526217 0.719739
vt 0.804946 0.455019
vt 0.016975 0.768653
vt 0.728434 0.041961
vt 0.626633 0.234600
vt 0.526283 0.058727
vt 0.626633 0.000000
vt 0.407655 0.446374
vt 0.251916 0.584898
vt 0.814731 0.481794
vt 0.481383 0.891013
vt 1.000000 0.520494
vt 0.038714 0.768653
vt 0.683748 0.700710
vt 0.719629 0.892325
vt 0.085795 0.872814
vt 0.248070 0.424423
vt 0.634772 0.875394
vt 0.888284 0.749849
vt 0.924792 0.476897
vt 0.800766 0.871183
vt 0.781386 0.784977
vt 0.803599 0.222746
vt 0.607342 0.719739
vt 0.525966 0.939641
vt 0.912143 0.287000
vt 0.880261 0.280142
vt 0.542473 0.818468
vt 0.296895 0.923916
vt 0.271070 0.921424
vt 0.808518 0.527707
vt 0.312776 0.797590
vt 0.750774 0.211358
vt 0.328864 0.584898
vt 0.974653 0.637437
vn -0.0506 -0.1778 -0.9828
vn 0.6990 -0.5903 -0.4036
vn 0.0000 -0.5903 -0.8072
vn 0.8685 -0.1986 -0.4542
vn 0.6990 -0.5903 0.4036
vn 0.8250 0.0494 0.5630
vn 0.0000 -0.5903 0.8072
vn -0.0300 0.2245 0.9740
vn -0.6990 -0.5903 0.4036
vn -0.8246 0.2498 -0.5075
vn -0.1034 -0.2645 -0.9588
vn -0.8969 0.0802 -0.4348
vn -0.6990 -0.5903 -0.4036
vn -0.6538 0.6301 0.4189
vn -0.7723 0.3495 -0.5305
vn -0.7593 0.5288 0.3792
vn -0.8300 0.2336 0.5064
vn 0.8127 -0.2565 0.5231
vn 0.6822 -0.5838 -0.4402
vn -0.0195 0.4108 0.9115
vn 0.0486 -0.2338 -0.9710
vn -0.5700 0.6940 -0.4397
vn 0.0433 0.5904 -0.8059
vn 0.1237 0.3383 0.9328
vn 0.8423 -0.3276 -0.4280
vn 0.8683 -0.0970 0.4865
vn -0.6441 -0.0320 -0.7642
vn -0.9781 -0.1697 0.1208
vn -0.5875 -0.0106 -0.8091
vn 0.2719 0.2656 -0.9249
vn 0.9835 0.0080 -0.1808
vn 0.4847 -0.1108 -0.8676
vn -0.6164 -0.0677 -0.7845
vn 0.3352 0.1449 -0.9309
vn 0.3011 0.2926 -0.9076
vn -0.0764 -0.5363 -0.8405
vn 0.9362 0.3408 -0.0850
vn -0.9760 0.0816 0.2021
vn -0.8251 0.4119 -0.3867
vn -0.9046 -0.2758 -0.3249
vn 0.2168 -0.8189 0.5313
vn -0.3004 -0.2745 0.9134
vn 0.5721 0.0548 0.8183
vn 0.5709 0.0681 0.8182
vn -0.3254 -0.9203 -0.2170
vn -0.3618 -0.1543 0.9194
vn -0.9718 -0.2118 0.1032
vn 0.8127 -0.3667 0.4528
vn 0.9764 0.1780 -0.1225
vn 0.9149 0.3929 -0.0924
vn -0.4507 0.0000 -0.8926
vn 0.6119 0.1034 0.7841
vn -0.3348 -0.1287 0.9334
vn 0.7493 -0.0792 -0.6575
vn 0.9328 -0.1670 0.3194
vn 0.7936 -0.5460 0.2682
vn -0.8515 0.0126 0.5242
vn -0.0745 -0.4244 0.9024
vn -0.6475 0.0994 0.7555
vn 0.3572 -0.3204 -0.8773
vn 0.8455 -0.4787 0.2365
vn 0.3429 -0.9029 -0.2592
vn 0.0439 0.4786 -0.8769
vn 0.9520 0.2624 -0.1574
vn 0.7920 0.0113 -0.6104
vn -0.4329 -0.8650 0.2536
vn 0.2838 -0.0016 0.9589
vn -0.0665 0.3653 0.9285
vn 0.0969 0.4939 -0.8641
vn -0.1585 -0.4610 0.8731
vn -0.9488 -0.3147 0.0275
vn -0.8736 0.1127 -0.4734
vn -0.8120 0.5256 -0.2536
vn -0.1765 0.9413 0.2876
vn 0.5187 0.8110 -0.2705
vn -0.1020 0.0868 -0.9910
vn -0.7564 0.6535 0.0258
vn 0.0027 0.5686 0.8226
vn -0.2751 0.8387 -0.4700
vn -0.5173 0.1843 0.8357
vn 0.2197 0.9572 0.1881
vn -0.5289 0.8108 0.2506
vn 0.6469 0.7151 0.2647
vn 0.0353 0.8201 0.5712
vn 0.6628 0.5996 -0.4485
vn -0.2724 -0.9616 0.0338
vn 0.4368 -0.4798 0.7609
vn -0.6070 -0.2270 0.7616
vn 0.7443 -0.5960 -0.3011
vn -0.9534 -0.1763 -0.2448
vn -0.1472 -0.3856 -0.9108
vn 0.9534 0.1763 0.2448
vn 0.1472 0.3856 0.9108
vn -0.7443 0.5960 0.3011
vn -0.4368 0.4798 -0.7609
vn 0.6070 0.2270 -0.7616
vn 0.2724 0.9616 -0.0338
vn 0.0000 -1.0000 0.0000
vn 0.7488 -0.3785 0.5441
vn -0.2860 -0.3785 0.8803
vn 0.7488 -0.3785 -0.5441
vn -0.9256 -0.3785 0.0000
vn -0.2860 -0.3785 -0.8803
vn 0.9256 0.3785 0.0000
vn 0.2860 0.3785 0.8803
vn -0.7488 0.3785 0.5441
vn -0.7488 0.3785 -0.5441
vn 0.2860 0.3785 -0.8803
vn 0.0000 1.0000 0.0000
usemtl None
s 1
f 2/1/1 3/2/2 1/3/3
f 4/4/4 5/5/5 3/6/2
f 6/7/6 7/8/7 5/9/5
f 8/10/8 9/11/9 7/8/7
f 2/12/1 18/13/10 13/14/11
f 9/15/9 12/16/12 11/17/13
f 12/18/12 1/3/3 11/19/13
f 3/20/2 9/21/9 11/22/13
f 18/23/10 23/24/14 24/25/15
f 8/26/8 17/27/16 10/28/17
f 4/29/4 15/30/18 6/31/6
f 12/16/12 17/32/16 18/33/10
f 4/29/4 13/14/11 14/34/19
f 6/35/6 16/36/20 8/26/8
f 19/37/21 85/38/22 80/39/23
f 15/40/18 22/41/24 16/42/20
f 14/34/19 19/43/21 20/44/25
f 13/45/11 24/46/15 19/37/21
f 16/36/20 23/24/14 17/27/16
f 14/34/19 21/47/26 15/30/18
f 28/48/27 49/49/28 44/50/29
f 29/51/30 39/52/31 25/53/32
f 28/54/27 29/55/30 27/56/33
f 30/57/34 44/58/29 45/59/35
f 27/56/33 25/60/32 26/61/36
f 30/62/34 31/63/37 29/51/30
f 44/50/29 79/64/38 74/65/39
f 37/66/40 41/67/41 35/68/42
f 31/69/37 34/70/43 33/71/44
f 33/71/44 39/72/31 31/69/37
f 37/66/40 26/73/36 42/74/45
f 33/75/44 36/76/46 35/77/42
f 36/76/46 49/78/28 38/79/47
f 25/80/32 40/81/48 26/73/36
f 35/68/42 38/82/47 37/66/40
f 32/83/49 45/84/35 46/85/50
f 43/86/51 37/87/40 38/88/47
f 38/82/47 27/89/33 37/66/40
f 35/77/42 40/90/48 33/75/44
f 32/83/49 47/91/52 34/70/43
f 34/92/43 48/93/53 36/76/46
f 51/94/54 68/95/55 50/96/56
f 59/97/57 64/98/58 65/99/59
f 52/100/60 55/101/61 54/102/62
f 67/103/63 69/104/64 51/105/54
f 53/106/65 50/96/56 55/107/61
f 55/107/61 56/108/66 54/109/62
f 65/110/59 70/111/67 71/112/68
f 63/113/69 51/114/54 53/115/65
f 57/116/70 58/117/71 56/118/66
f 69/119/64 71/120/68 70/121/67
f 57/122/70 50/96/56 64/98/58
f 59/123/57 60/124/72 58/125/71
f 61/126/73 67/127/63 63/113/69
f 67/127/63 72/128/74 73/129/75
f 60/130/72 63/113/69 62/131/76
f 50/96/56 70/132/67 64/98/58
f 61/133/73 65/134/59 66/135/77
f 62/136/76 53/137/65 52/100/60
f 56/108/66 58/138/71 52/139/60
f 66/140/77 71/120/68 72/128/74
f 74/141/39 77/142/78 75/143/79
f 47/144/52 78/145/80 48/93/53
f 46/146/50 75/143/79 76/147/81
f 48/148/53 79/149/38 49/150/28
f 46/146/50 77/142/78 47/151/52
f 45/59/35 74/152/39 75/153/79
f 80/154/23 84/155/82 82/156/83
f 23/24/14 83/157/84 84/155/82
f 20/158/25 82/159/83 21/160/26
f 24/25/15 84/155/82 85/161/22
f 21/162/26 83/157/84 22/163/24
f 19/37/21 81/164/85 20/165/25
f 86/166/86 87/167/87 88/168/88
f 87/167/87 86/166/86 91/169/89
f 86/166/86 88/168/88 89/170/90
f 86/166/86 89/170/90 90/171/91
f 86/166/86 90/171/91 91/169/89
f 87/167/87 91/169/89 96/172/92
f 88/173/88 87/174/87 92/175/93
f 89/176/90 88/177/88 93/178/94
f 90/179/91 89/180/90 94/181/95
f 91/169/89 90/171/91 95/182/96
f 87/174/87 96/183/92 92/175/93
f 88/173/88 92/175/93 93/184/94
f 89/176/90 93/178/94 94/185/95
f 90/179/91 94/181/95 95/186/96
f 91/187/89 95/188/96 96/189/92
f 92/190/93 96/191/92 97/192/97
f 93/193/94 92/190/93 97/192/97
f 94/194/95 93/193/94 97/192/97
f 95/195/96 94/194/95 97/192/97
f 96/191/92 95/195/96 97/192/97
f 98/196/98 99/197/99 100/198/100
f 99/197/99 98/196/98 103/199/101
f 98/196/98 100/198/100 101/200/102
f 98/196/98 101/200/102 102/201/103
f 98/196/98 102/201/103 103/199/101
f 99/202/99 103/203/101 108/204/104
f 100/205/100 99/206/99 104/207/105
f 101/208/102 100/205/100 105/209/106
f 102/210/103 101/211/102 106/212/107
f 103/213/101 102/210/103 107/214/108
f 99/202/99 108/204/104 104/215/105
f 100/205/100 104/207/105 105/209/106
f 101/216/102 105/217/106 106/218/107
f 102/210/103 106/212/107 107/214/108
f 103/203/101 107/219/108 108/204/104
f 104/220/105 108/221/104 109/222/109
f 105/223/106 104/220/105 109/222/109
f 106/224/107 105/223/106 109/222/109
f 107/225/108 106/224/107 109/222/109
f 108/221/104 107/225/108 109/222/109
f 110/226/98 111/227/99 112/228/100
f 111/227/99 110/226/98 115/229/101
f 110/226/98 112/228/100 113/230/102
f 110/226/98 113/230/102 114/231/103
f 110/226/98 114/231/103 115/229/101
f 111/232/99 115/233/101 120/234/104
f 112/235/100 111/236/99 116/237/105
f 113/238/102 112/235/100 117/239/106
f 114/240/103 113/241/102 118/242/107
f 115/243/101 114/240/103 119/244/108
f 111/232/99 120/234/104 116/245/105
f 112/235/100 116/237/105 117/239/106
f 113/246/102 117/247/106 118/248/107
f 114/240/103 118/242/107 119/244/108
f 115/233/101 119/249/108 120/234/104
f 116/250/105 120/251/104 121/252/109
f 117/253/106 116/250/105 121/252/109
f 118/254/107 117/253/106 121/252/109
f 119/255/108 118/254/107 121/252/109
f 120/251/104 119/255/108 121/252/109
f 2/1/1 4/256/4 3/2/2
f 4/4/4 6/257/6 5/5/5
f 6/7/6 8/10/8 7/8/7
f 8/10/8 10/258/17 9/11/9
f 2/12/1 12/259/12 18/13/10
f 9/15/9 10/260/17 12/16/12
f 12/18/12 2/1/1 1/3/3
f 11/22/13 1/261/3 3/20/2
f 3/20/2 5/262/5 7/263/7
f 7/263/7 9/21/9 3/20/2
f 18/23/10 17/27/16 23/24/14
f 8/26/8 16/36/20 17/27/16
f 4/29/4 14/34/19 15/30/18
f 12/16/12 10/260/17 17/32/16
f 4/29/4 2/12/1 13/14/11
f 6/35/6 15/264/18 16/36/20
f 19/37/21 24/46/15 85/38/22
f 15/40/18 21/265/26 22/41/24
f 14/34/19 13/14/11 19/43/21
f 13/45/11 18/266/10 24/46/15
f 16/36/20 22/163/24 23/24/14
f 14/34/19 20/44/25 21/47/26
f 28/48/27 38/267/47 49/49/28
f 29/51/30 31/63/37 39/52/31
f 28/54/27 30/57/34 29/55/30
f 30/57/34 28/54/27 44/58/29
f 27/56/33 29/55/30 25/60/32
f 30/62/34 32/268/49 31/63/37
f 44/50/29 49/49/28 79/64/38
f 37/66/40 42/74/45 41/67/41
f 31/69/37 32/83/49 34/70/43
f 33/71/44 40/269/48 39/72/31
f 37/66/40 27/89/33 26/73/36
f 33/75/44 34/92/43 36/76/46
f 36/76/46 48/93/53 49/78/28
f 42/74/45 26/73/36 41/67/41
f 25/80/32 39/270/31 40/81/48
f 40/81/48 41/67/41 26/73/36
f 35/68/42 36/271/46 38/82/47
f 32/83/49 30/272/34 45/84/35
f 43/86/51 42/273/45 37/87/40
f 38/82/47 28/274/27 27/89/33
f 35/77/42 41/275/41 40/90/48
f 32/83/49 46/85/50 47/91/52
f 34/92/43 47/144/52 48/93/53
f 51/94/54 69/276/64 68/95/55
f 59/97/57 57/122/70 64/98/58
f 52/100/60 53/137/65 55/101/61
f 67/103/63 73/277/75 69/104/64
f 53/106/65 51/94/54 50/96/56
f 55/107/61 57/122/70 56/108/66
f 65/110/59 64/278/58 70/111/67
f 63/113/69 67/127/63 51/114/54
f 57/116/70 59/279/57 58/117/71
f 70/121/67 68/280/55 69/119/64
f 69/119/64 73/129/75 71/120/68
f 72/128/74 71/120/68 73/129/75
f 57/122/70 55/107/61 50/96/56
f 59/123/57 61/133/73 60/124/72
f 61/126/73 66/140/77 67/127/63
f 67/127/63 66/140/77 72/128/74
f 60/130/72 61/126/73 63/113/69
f 50/96/56 68/95/55 70/132/67
f 61/133/73 59/123/57 65/134/59
f 62/136/76 63/281/69 53/137/65
f 62/282/76 52/139/60 58/138/71
f 54/109/62 56/108/66 52/139/60
f 58/138/71 60/283/72 62/282/76
f 66/140/77 65/284/59 71/120/68
f 76/147/81 75/143/79 77/142/78
f 74/141/39 79/285/38 78/286/80
f 78/286/80 77/142/78 74/141/39
f 47/144/52 77/287/78 78/145/80
f 46/146/50 45/288/35 75/143/79
f 48/148/53 78/289/80 79/149/38
f 46/146/50 76/147/81 77/142/78
f 45/59/35 44/58/29 74/152/39
f 82/156/83 81/290/85 80/154/23
f 80/154/23 85/161/22 84/155/82
f 84/155/82 83/157/84 82/156/83
f 23/24/14 22/163/24 83/157/84
f 20/158/25 81/291/85 82/159/83
f 24/25/15 23/24/14 84/155/82
f 21/162/26 82/156/83 83/157/84
f 19/37/21 80/39/23 81/164/85
